HIERARCHY
ROOT root
{
	OFFSET	0	13.1	24.9
	CHANNELS 6  Xposition Yposition Zposition Xrotation Yrotation Zrotation
	JOINT spine_1
	{
		OFFSET	0	9.99999	0
		CHANNELS 3  Xrotation Yrotation Zrotation
		JOINT spine_2
		{
			OFFSET	0	112	-10
			CHANNELS 3  Xrotation Yrotation Zrotation
			JOINT spine_3
			{
				OFFSET	0	206.5	19.3
				CHANNELS 3  Xrotation Yrotation Zrotation
				JOINT spine_4
				{
					OFFSET	0	110.4	14.6
					CHANNELS 3  Xrotation Yrotation Zrotation
					JOINT neck_1
					{
						OFFSET	0	71.8	-50.3
						CHANNELS 3  Xrotation Yrotation Zrotation
						JOINT neck_2
						{
							OFFSET	0	86.2	-25.8
							CHANNELS 3  Xrotation Yrotation Zrotation
							JOINT head_ee
							{
								OFFSET	0	179.8	-8.7
								CHANNELS 3  Xrotation Yrotation Zrotation
								End Site
								{
									OFFSET	1	0	0
								}
							}
						}
					}
					JOINT left_clavicle
					{
						OFFSET	-43.2	22.4	-70.8
						CHANNELS 3  Xrotation Yrotation Zrotation
						JOINT left_shoulder
						{
							OFFSET	-93.9	-5.79999	48.7
							CHANNELS 3  Xrotation Yrotation Zrotation
							JOINT left_elbow
							{
								OFFSET	-291.4	-30.8	15.2
								CHANNELS 3  Xrotation Yrotation Zrotation
								JOINT left_lowarm_twist
								{
									OFFSET	-110.7	-3.89999	13.6
									CHANNELS 3  Xrotation Yrotation Zrotation
									JOINT left_hand
									{
										OFFSET	-110.7	-3.89999	13.6
										CHANNELS 3  Xrotation Yrotation Zrotation
										JOINT left_ee
										{
											OFFSET	-80.8	-5.10001	12.1
											CHANNELS 3  Xrotation Yrotation Zrotation
											End Site
											{
												OFFSET	1	0	0
											}
										}
									}
								}
							}
						}
					}
					JOINT right_clavicle
					{
						OFFSET	43.2	22.4	-70.8
						CHANNELS 3  Xrotation Yrotation Zrotation
						JOINT right_shoulder
						{
							OFFSET	93.9	-5.79999	48.7
							CHANNELS 3  Xrotation Yrotation Zrotation
							JOINT right_elbow
							{
								OFFSET	291.4	-30.8	15.2
								CHANNELS 3  Xrotation Yrotation Zrotation
								JOINT right_lowarm_twist
								{
									OFFSET	110.7	-3.89999	13.6
									CHANNELS 3  Xrotation Yrotation Zrotation
									JOINT right_hand
									{
										OFFSET	110.7	-3.89999	13.6
										CHANNELS 3  Xrotation Yrotation Zrotation
										JOINT right_ee
										{
											OFFSET	80.8	-5.10001	12.1
											CHANNELS 3  Xrotation Yrotation Zrotation
											End Site
											{
												OFFSET	1	0	0
											}
										}
									}
								}
							}
						}
					}
				}
			}
		}
	}
	JOINT left_hip
	{
		OFFSET	-82.8	-127.5	0.300001
		CHANNELS 3  Xrotation Yrotation Zrotation
		JOINT left_knee
		{
			OFFSET	-28.2	-396.7	2.2
			CHANNELS 3  Xrotation Yrotation Zrotation
			JOINT left_ankle
			{
				OFFSET	-11.7	-411.3	35.4
				CHANNELS 3  Xrotation Yrotation Zrotation
				JOINT left_toes
				{
					OFFSET	0	-60	-88.6
					CHANNELS 3  Xrotation Yrotation Zrotation
					JOINT left_foot_ee
					{
						OFFSET	-22.5	-16.5	-42.2
						CHANNELS 3  Xrotation Yrotation Zrotation
						End Site
						{
							OFFSET	1	0	0
						}
					}
				}
			}
		}
	}
	JOINT right_hip
	{
		OFFSET	82.8	-127.5	0.300001
		CHANNELS 3  Xrotation Yrotation Zrotation
		JOINT right_knee
		{
			OFFSET	28.2	-396.7	2.2
			CHANNELS 3  Xrotation Yrotation Zrotation
			JOINT right_ankle
			{
				OFFSET	11.7	-411.3	35.4
				CHANNELS 3  Xrotation Yrotation Zrotation
				JOINT right_toes
				{
					OFFSET	0	-60	-88.6
					CHANNELS 3  Xrotation Yrotation Zrotation
					JOINT right_foot_ee
					{
						OFFSET	22.5	-16.5	-42.2
						CHANNELS 3  Xrotation Yrotation Zrotation
						End Site
						{
							OFFSET	1	0	0
						}
					}
				}
			}
		}
	}
}
MOTION
Frames: 15
Frame Time: 0.02
2822.88610349 693.773 -1660.9852218 0.9338306474 66.3090967309 -0.317094943467 0.872047 -0.190032 0.244848 0.872057 -0.205227 0.232259 0.871208 -0.246634 0.187708 0.871223 -0.213894 0.224303 -10.4053 8.25126 2.91957 -10.4515 13.6112 4.95178 -0.0 0.0 -0.0 3.488 6.09745 7.0432 10.544 -35.2382 63.5318 0.869984 -23.3141 0.179488 -49.6479 -4.03059 4.66436 -0.0598167 -1.6335 -1.09087 -0.0 0.0 -0.0 8.32028 11.4722 -16.1514 -26.9225 30.5397 -60.6772 0.734463 19.993 -0.129461 49.0715 0.903142 6.01423 2.62733 -2.53029 -18.8375 0.0 0.0 0.0 -0.673105 -4.04793 3.1597 -0.260016 0.0106192 0.038489 39.3052 0.938494 -4.80944 -20.5767 0.0 0.0 -0.0 0.0 -0.0 12.2689 11.4307 2.89336 -59.0154 2.09461 -8.41608 18.3882 -28.0588 2.70462 -2.64966 0.0 0.0 0.0 0.0 0.0 
2806.39303243 697.786 -1656.93906861 1.14249123775 65.7030355399 -0.750178084288 0.610643 -0.224535 0.207209 0.610635 -0.237265 0.192501 0.609816 -0.270938 0.141224 0.609872 -0.245234 0.182241 -10.5881 8.5069 3.21861 -10.6361 13.9148 5.32849 -0.0 0.0 -0.0 3.63608 6.62825 7.33518 11.0979 -34.9466 62.5067 0.989337 -26.1084 0.229398 -49.1701 -3.97485 4.6388 -0.521762 -1.62582 -4.1878 -0.0 0.0 -0.0 8.24954 10.199 -16.0408 -29.1762 30.4989 -59.9207 0.673873 18.4599 -0.109507 47.2119 0.776521 5.81265 2.47146 -3.91412 -18.2723 0.0 0.0 0.0 -3.73786 -3.69998 3.95873 1.88941 -0.0824033 -0.278205 40.3339 0.302729 -4.90236 -20.1169 0.0 0.0 -0.0 0.0 -0.0 18.669 11.2209 1.53098 -58.5772 2.04832 -8.36683 17.5294 -27.4075 2.57592 -3.10417 0.0 0.0 0.0 0.0 0.0 
2806.55830346 697.786 -1652.70609224 1.17222693184 66.3574230267 -0.782719683329 0.610643 -0.224535 0.207209 0.610635 -0.237265 0.192501 0.609816 -0.270938 0.141224 0.609872 -0.245234 0.182241 -10.5881 8.5069 3.21861 -10.6361 13.9148 5.32849 -0.0 0.0 -0.0 3.63608 6.62825 7.33518 11.0979 -34.9466 62.5067 0.989337 -26.1084 0.229398 -49.1701 -3.97485 4.6388 -0.521762 -1.62582 -4.1878 -0.0 0.0 -0.0 8.24954 10.199 -16.0408 -29.1762 30.4989 -59.9207 0.673873 18.4599 -0.109507 47.2119 0.776521 5.81265 2.47146 -3.91412 -18.2723 0.0 0.0 0.0 -3.73786 -3.69998 3.95873 1.88941 -0.0824033 -0.278205 40.3339 0.302729 -4.90236 -20.1169 0.0 0.0 -0.0 0.0 -0.0 18.669 11.2209 1.53098 -58.5772 2.04832 -8.36683 17.5294 -27.4075 2.57592 -3.10417 0.0 0.0 0.0 0.0 0.0 
2805.20547139 698.01 -1640.20722303 -0.970177247047 65.9915093335 0.93760090427 0.791389 0.0302571 0.115458 0.791396 0.0228489 0.117149 0.791446 -0.000634855 0.119355 0.791426 0.018223 0.117957 -11.6069 8.42804 2.72569 -11.6872 14.1966 4.95547 -0.0 0.0 -0.0 3.67595 7.14895 7.4283 12.5937 -34.9576 61.6612 1.16189 -29.9221 0.31049 -48.4581 -3.89219 4.59984 -1.13381 -0.238879 -7.69996 -0.0 0.0 -0.0 8.1478 9.33169 -15.8477 -30.9775 30.3855 -59.2985 0.627911 17.2783 -0.0954026 45.9285 0.69299 5.67122 2.45845 -6.32386 -19.0726 0.0 0.0 0.0 -2.68833 -0.917178 4.35859 2.93432 -0.13191 -0.430875 37.739 1.17445 -4.6683 -21.4731 0.0 0.0 -0.0 0.0 -0.0 20.2063 10.9404 0.401622 -52.1816 1.41743 -7.60995 18.9547 -26.6269 2.75652 -4.6807 0.0 0.0 0.0 0.0 0.0 
2772.46755258 695.522 -1623.9960248 -4.15877763612 66.0700723886 3.92930858295 0.842641 -0.170096 0.178703 0.842641 -0.181123 0.167517 0.842099 -0.210415 0.128813 0.842125 -0.187431 0.160428 -8.92438 10.023 0.228658 -8.99639 18.6354 2.57738 -0.0 0.0 -0.0 4.36792 8.80665 8.71397 15.6813 -33.4609 58.4448 1.63565 -39.0132 0.579462 -45.7426 -3.58154 4.44192 -4.1155 7.82453 -24.1874 -0.0 0.0 -0.0 7.77759 6.32953 -15.13 -35.2291 29.7672 -58.9726 0.466239 13.0053 -0.0531433 40.7426 0.388448 5.08197 2.0607 -18.3809 -20.3498 0.0 0.0 0.0 -3.06695 7.5085 5.10408 1.80024 -0.0783082 -0.265135 37.2598 1.1984 -4.62436 -24.4173 0.0 0.0 -0.0 0.0 -0.0 26.5335 9.08655 -1.10386 -36.1861 0.242125 -5.45698 21.809 -26.628 3.1346 -7.16524 0.0 0.0 0.0 0.0 0.0 
2758.67954721 697.968 -1615.2077038 -3.60087147448 66.4281996265 3.25089220225 0.680471 -0.261321 0.289916 0.680474 -0.279239 0.2727 0.679113 -0.327831 0.211817 0.679168 -0.290265 0.260933 -8.85715 9.98672 -0.855444 -8.92673 19.3093 1.49418 -0.0 0.0 -0.0 4.94051 9.3428 9.73424 16.5943 -33.0664 57.61 1.70115 -40.1175 0.621184 -45.217 -3.52229 4.40967 -4.60274 10.6973 -25.8994 -0.0 0.0 -0.0 7.4857 5.42285 -14.5369 -36.5469 29.6338 -59.4362 0.428884 11.9947 -0.0450576 38.7193 0.284332 4.8451 2.24399 -14.2 -20.2824 0.0 0.0 0.0 -5.22555 10.212 5.80018 3.78412 -0.174224 -0.554371 37.1162 2.6919 -4.6041 -24.9524 0.0 0.0 -0.0 0.0 -0.0 27.3547 8.62956 -1.15283 -33.0882 0.0865564 -5.00728 23.7257 -21.6655 3.29167 -6.43586 0.0 0.0 0.0 0.0 0.0 
2740.21373893 698.663 -1608.45617071 -1.00105204753 66.5906116001 -0.219498235806 0.523348 -0.341974 0.551355 0.523438 -0.376365 0.528478 0.519905 -0.475055 0.441886 0.519855 -0.399306 0.511365 -8.64733 10.0421 -0.579354 -8.70942 19.2079 1.74303 -0.0 0.0 -0.0 4.70555 11.7487 9.33943 16.8776 -34.0099 57.7244 1.879 -42.943 0.739134 -44.2575 -3.4149 4.3494 -5.28941 12.6482 -29.57 -0.0 0.0 -0.0 7.14889 3.25167 -13.874 -37.7865 29.5607 -58.8805 0.417877 11.6955 -0.0427984 37.3076 0.216681 4.67774 1.88881 -18.3356 -19.2221 0.0 0.0 0.0 -6.52126 11.4555 7.48431 -2.52302 0.095629 0.375361 39.1951 2.62355 -4.79177 -23.8396 0.0 0.0 -0.0 0.0 -0.0 27.5768 8.52445 -1.95991 -24.4182 -0.21709 -3.71262 19.0472 -20.9002 2.68808 -6.63096 0.0 0.0 0.0 0.0 0.0 
2739.65443387 698.663 -1612.61702528 -0.979558964691 66.0452680094 -0.242967455723 0.523348 -0.341974 0.551355 0.523438 -0.376365 0.528478 0.519905 -0.475055 0.441886 0.519855 -0.399306 0.511365 -8.64733 10.0421 -0.579354 -8.70942 19.2079 1.74303 -0.0 0.0 -0.0 4.70555 11.7487 9.33943 16.8776 -34.0099 57.7244 1.879 -42.943 0.739134 -44.2575 -3.4149 4.3494 -5.28941 12.6482 -29.57 -0.0 0.0 -0.0 7.14889 3.25167 -13.874 -37.7865 29.5607 -58.8805 0.417877 11.6955 -0.0427984 37.3076 0.216681 4.67774 1.88881 -18.3356 -19.2221 0.0 0.0 0.0 -6.52126 11.4555 7.48431 -2.52302 0.095629 0.375361 39.1951 2.62355 -4.79177 -23.8396 0.0 0.0 -0.0 0.0 -0.0 27.5768 8.52445 -1.95991 -24.4182 -0.21709 -3.71262 19.0472 -20.9002 2.68808 -6.63096 0.0 0.0 0.0 0.0 0.0 
2730.20666894 700.101 -1612.47496334 -1.76652501781 65.3037320822 0.0382852586454 0.542075 -0.158556 0.690839 0.542318 -0.202194 0.679351 0.539934 -0.334605 0.624853 0.539464 -0.231724 0.669854 -8.66816 10.5395 0.619789 -8.73558 19.3119 3.04217 -0.0 0.0 -0.0 4.72832 13.6406 9.38142 17.8869 -34.0896 57.2397 2.06464 -45.6393 0.868804 -43.5782 -3.33949 4.30564 -5.73347 14.2486 -31.6854 -0.0 0.0 -0.0 6.88747 1.30398 -13.3634 -38.7273 29.5382 -58.3819 0.475267 13.2483 -0.0551935 37.0832 0.206307 4.65098 1.46551 -21.4678 -17.488 0.0 0.0 0.0 -7.51645 12.6023 8.02973 -2.42588 0.0922542 0.360834 36.4647 3.23879 -4.54165 -24.0858 0.0 0.0 -0.0 0.0 -0.0 25.8043 8.26976 -2.13228 -14.757 -0.321237 -2.2356 14.3035 -19.5027 2.04499 -6.90678 0.0 0.0 0.0 0.0 0.0 
2719.15350797 694.192 -1613.52929091 -1.01963133286 65.3342132055 -0.72615064764 0.377624 -0.137978 0.610816 0.377814 -0.176565 0.600799 0.37598 -0.29529 0.552213 0.375612 -0.204374 0.591917 -8.5216 10.9422 1.73758 -8.57868 19.2763 4.20886 -0.0 0.0 -0.0 4.65307 14.7013 9.25549 18.7033 -34.145 56.7606 2.31413 -48.8939 1.05214 -45.1157 -3.51091 4.40339 -6.09757 15.6718 -33.3018 -0.0 0.0 -0.0 6.64688 -0.641783 -12.8956 -39.8483 29.6586 -57.8467 0.47996 13.3744 -0.056274 36.9195 0.198808 4.63145 1.22482 -26.2584 -17.4383 0.0 0.0 0.0 -9.50206 11.3539 8.26802 -0.310086 0.0126443 0.045906 38.3433 3.50642 -4.71345 -25.7191 0.0 0.0 -0.0 0.0 -0.0 26.0981 8.53366 -3.006 -9.87657 -0.278958 -1.4882 14.6399 -17.8297 2.07857 -5.57781 0.0 0.0 0.0 0.0 0.0 
2704.20765074 695.173 -1615.23413826 -0.0791303414681 65.4469895925 -1.69699880375 0.227168 -0.27731 0.674971 0.227365 -0.319697 0.655958 0.223677 -0.448199 0.575854 0.223387 -0.351631 0.639409 -9.58902 11.0605 2.29807 -9.6829 19.2392 4.95962 -0.0 0.0 -0.0 4.47188 15.7006 8.96017 19.306 -34.1433 56.3388 2.45558 -50.5691 1.16008 -43.2127 -3.29913 4.28173 -6.31535 16.4404 -34.3208 -0.0 0.0 -0.0 6.4333 -1.9616 -12.4816 -40.7632 29.4771 -57.8832 0.49114 13.6744 -0.0588887 36.3697 0.174027 4.56566 0.754523 -27.3711 -15.0392 0.0 0.0 0.0 -10.5729 13.4314 8.13663 -2.74017 0.103084 0.407852 35.5807 3.67953 -4.45671 -24.0457 0.0 0.0 -0.0 0.0 -0.0 25.314 8.61978 -3.23628 -3.34789 -0.123293 -0.49893 8.76796 -14.8765 1.26065 -7.55262 0.0 0.0 0.0 0.0 0.0 
2675.33619344 689.706 -1615.82508127 1.49810971296 65.892628002 -3.01617385358 -0.064905 -0.333257 0.754837 -0.0646686 -0.380613 0.732103 -0.0695722 -0.526783 0.635094 -0.069889 -0.419873 0.710316 -10.9013 11.0383 2.74118 -11.0384 19.0576 5.59918 -0.0 0.0 -0.0 4.19003 16.3433 8.51111 19.8302 -34.1631 55.5181 2.82175 -54.4097 1.4507 -43.3398 -3.31314 4.29007 -6.73982 18.9406 -35.3563 -0.0 0.0 -0.0 5.93338 -4.80489 -11.5301 -42.6171 29.9772 -57.5017 0.565794 15.6572 -0.0777924 35.2893 0.127183 4.43574 0.533744 -29.2734 -14.382 0.0 0.0 0.0 -13.8317 14.0204 7.71561 -2.04155 0.0786596 0.303418 37.5858 5.30805 -4.6426 -23.8511 0.0 0.0 -0.0 0.0 -0.0 25.9068 12.732 -6.32571 5.70049 0.276356 0.830519 5.05379 -5.63816 0.730476 -8.22475 0.0 0.0 0.0 0.0 0.0 
2664.04489246 690.74 -1617.05697654 2.16514529072 65.0527219064 -3.35020890495 -0.139985 -0.0640226 0.757163 -0.139673 -0.112072 0.751555 -0.141039 -0.269294 0.710548 -0.141711 -0.1537 0.744159 -9.54527 11.3048 2.20836 -9.64446 19.7553 4.92725 -0.0 0.0 -0.0 4.17065 16.4066 8.48067 19.9769 -34.3487 55.4735 2.98768 -55.9429 1.58693 -43.4062 -3.32048 4.29442 -6.76589 18.6644 -35.812 -0.0 0.0 -0.0 5.52813 -5.79748 -10.7775 -43.6196 30.3308 -57.4231 0.617763 17.0154 -0.0924108 35.6059 0.140653 4.47389 0.705145 -29.3688 -15.3663 0.0 0.0 0.0 -15.0567 13.2547 7.62517 -2.42471 0.0922133 0.360659 36.0874 4.37673 -4.50358 -24.424 0.0 0.0 -0.0 0.0 -0.0 26.2419 13.8871 -7.73826 9.3743 0.49779 1.34988 -2.43281 -3.87983 -0.359146 -9.42017 0.0 0.0 0.0 0.0 0.0 
2618.61402461 678.338 -1621.76371621 1.52356862005 65.0969329755 -3.1905901411 -0.266046 -0.0716001 0.722078 -0.265763 -0.117401 0.716059 -0.267133 -0.268439 0.674141 -0.267732 -0.158605 0.708073 -7.9092 10.19 0.815876 -7.94217 18.4468 3.03202 -0.0 0.0 -0.0 3.72432 16.8374 7.78061 18.8293 -34.1099 55.0843 3.97127 -63.0368 2.43596 -43.0047 -3.27623 4.26801 -6.99803 22.3558 -34.0626 -0.0 0.0 -0.0 4.28221 -6.77784 -8.51113 -46.488 33.4318 -58.4376 0.712651 19.4444 -0.122101 34.0572 0.076762 4.28652 1.42824 -29.9373 -19.6062 0.0 0.0 0.0 -19.1514 12.6365 8.79162 1.84345 -0.0802896 -0.271469 34.8068 3.57723 -4.38233 -21.6243 0.0 0.0 -0.0 0.0 -0.0 29.5875 22.1182 -7.75598 6.8987 0.344899 1.00142 -6.47497 2.79564 -0.979543 -6.33617 0.0 0.0 0.0 0.0 0.0 
2582.9424557 672.626 -1628.0468641 1.05982150186 65.0200116748 -3.55628939417 -0.344503 0.126548 0.721371 -0.344217 0.0803899 0.727961 -0.34301 -0.0787685 0.728138 -0.343748 0.0372128 0.73144 -6.86266 10.2393 -0.881366 -6.84836 19.6542 1.18404 -0.0 0.0 -0.0 3.89354 16.1537 8.03808 18.3874 -33.2147 54.9342 4.20142 -64.3173 2.64226 -43.5989 -3.34178 4.30699 -7.53774 26.4718 -33.7686 -0.0 0.0 -0.0 3.60142 -5.95865 -7.2436 -46.6254 34.054 -59.9639 0.660639 18.1213 -0.105353 33.2468 0.0453589 4.18781 1.81183 -29.6572 -21.7566 0.0 0.0 0.0 -21.3571 11.5057 10.1223 1.79127 -0.0778973 -0.263821 34.2435 1.37528 -4.33642 -20.6677 0.0 0.0 -0.0 0.0 -0.0 29.5483 24.0131 -6.81046 5.58567 0.269977 0.814069 -10.7172 2.19096 -1.62861 -2.42063 0.0 0.0 0.0 0.0 0.0 
